<svg xmlns="http://www.w3.org/2000/svg" xmlns:xlink="http://www.w3.org/1999/xlink" width="512" zoomAndPan="magnify" viewBox="0 0 384 383.999986" height="512" preserveAspectRatio="xMidYMid meet" version="1.0"><defs><g/><clipPath id="fbb9d779b5"><rect x="0" width="317" y="0" height="298"/></clipPath></defs><rect x="-38.4" width="460.8" fill="#ffffff" y="-38.399999" height="460.799983" fill-opacity="1"/><rect x="-38.4" width="460.8" fill="#ffffff" y="-38.399999" height="460.799983" fill-opacity="1"/><g transform="matrix(1, 0, 0, 1, 30, 43)"><g clip-path="url(#fbb9d779b5)"><g fill="#7777ff" fill-opacity="1"><g transform="translate(0.52905, 238.18269)"><g><path d="M 94.875 2.515625 C 78.144531 2.515625 63.429688 -1.222656 50.734375 -8.703125 C 38.046875 -16.191406 28.160156 -26.800781 21.078125 -40.53125 C 13.992188 -54.257812 10.453125 -70.492188 10.453125 -89.234375 C 10.453125 -108.523438 14.132812 -125.054688 21.5 -138.828125 C 28.863281 -152.597656 38.847656 -163.144531 51.453125 -170.46875 C 64.066406 -177.800781 78.300781 -181.46875 94.15625 -181.46875 C 104.238281 -181.46875 113.664062 -180.003906 122.4375 -177.078125 C 131.207031 -174.160156 138.992188 -169.976562 145.796875 -164.53125 C 152.597656 -159.082031 158.179688 -152.65625 162.546875 -145.25 C 166.910156 -137.84375 169.691406 -129.65625 170.890625 -120.6875 L 133.546875 -120.6875 C 132.347656 -125.09375 130.601562 -129.015625 128.3125 -132.453125 C 126.03125 -135.898438 123.25 -138.863281 119.96875 -141.34375 C 116.6875 -143.832031 112.941406 -145.71875 108.734375 -147 C 104.535156 -148.28125 99.875 -148.921875 94.75 -148.921875 C 85.382812 -148.921875 77.160156 -146.597656 70.078125 -141.953125 C 62.992188 -137.304688 57.488281 -130.554688 53.5625 -121.703125 C 49.632812 -112.859375 47.671875 -102.15625 47.671875 -89.59375 C 47.671875 -77.019531 49.613281 -66.289062 53.5 -57.40625 C 57.382812 -48.519531 62.890625 -41.734375 70.015625 -37.046875 C 77.140625 -32.367188 85.546875 -30.03125 95.234375 -30.03125 C 103.796875 -30.03125 111.195312 -31.609375 117.4375 -34.765625 C 123.6875 -37.929688 128.472656 -42.394531 131.796875 -48.15625 C 135.117188 -53.914062 136.78125 -60.679688 136.78125 -68.453125 L 144.71875 -67.375 L 98 -67.375 L 98 -95.234375 L 172.578125 -95.234375 L 172.578125 -72.78125 C 172.578125 -57.320312 169.234375 -43.96875 162.546875 -32.71875 C 155.859375 -21.476562 146.671875 -12.796875 134.984375 -6.671875 C 123.296875 -0.546875 109.925781 2.515625 94.875 2.515625 Z M 94.875 2.515625 "/></g></g></g><g fill="#7777ff" fill-opacity="1"><g transform="translate(160.966682, 238.18269)"><g><path d="M 8.171875 -148.203125 L 8.171875 -178.9375 L 154.203125 -178.9375 L 154.203125 -148.203125 L 99.671875 -148.203125 L 99.671875 0 L 62.921875 0 L 62.921875 -148.203125 Z M 8.171875 -148.203125 "/></g></g></g></g></g></svg>